<svg xmlns="http://www.w3.org/2000/svg" viewBox="0 0 16 16" width="16" height="16">
	<style>
		tspan { white-space:pre }
		.shp0 { fill: #ffffff } 
	</style>
	<path id="Layer" fill-rule="evenodd" class="shp0" d="M15.88 13.16C15.96 13.16 16 13.2 16 13.27L16 14.28C16 14.36 15.95 14.39 15.89 14.39L12.16 14.39C12.08 14.39 12.04 14.34 12.04 14.28L12.04 13.27C12.04 13.19 12.09 13.15 12.15 13.15L15.88 13.15L15.88 13.16ZM10.97 1.64C10.98 1.67 10.99 1.69 11.01 1.72L11.01 14.25C11.01 14.29 10.99 14.31 10.98 14.33C10.96 14.35 10.93 14.37 10.89 14.37L0.1 14.37C0.08 14.37 0.05 14.37 0.04 14.35C0.01 14.33 0 14.3 0 14.26L0 1.71C0 1.66 0.03 1.62 0.06 1.61L10.89 1.61C10.92 1.61 10.96 1.62 10.97 1.63L10.97 1.64L10.97 1.64ZM1.21 13.05C1.21 13.1 1.24 13.14 1.28 13.15L9.7 13.15C9.74 13.14 9.77 13.1 9.77 13.05L9.77 2.94C9.77 2.89 9.74 2.85 9.7 2.83L1.28 2.83C1.24 2.85 1.21 2.88 1.21 2.94L1.21 13.05L1.21 13.05ZM4.66 7.47C4.18 7.47 3.83 7.7 3.67 8.14C3.58 8.41 3.55 8.71 3.55 9.12C3.55 9.53 3.57 9.85 3.66 10.11C3.81 10.57 4.17 10.8 4.64 10.8C5.08 10.8 5.35 10.64 5.61 10.34C5.65 10.29 5.71 10.29 5.76 10.32L6.45 10.93C6.5 10.97 6.49 11.03 6.46 11.08C6.04 11.57 5.43 11.89 4.63 11.89C3.57 11.89 2.77 11.37 2.46 10.42C2.34 10.09 2.29 9.67 2.29 9.1C2.29 8.53 2.34 8.11 2.45 7.78C2.76 6.84 3.56 6.31 4.62 6.31C5.41 6.31 6.02 6.63 6.45 7.14C6.47 7.18 6.48 7.26 6.43 7.29L5.74 7.9C5.69 7.94 5.63 7.93 5.59 7.88C5.34 7.59 5.06 7.42 4.62 7.42L4.66 7.47Z" />
</svg>